<?xml version="1.0" encoding="utf-8"?>
<!-- Generator: Adobe Illustrator 18.1.1, SVG Export Plug-In . SVG Version: 6.00 Build 0)  -->
<svg version="1.0" id="Ebene_1" xmlns="http://www.w3.org/2000/svg" xmlns:xlink="http://www.w3.org/1999/xlink" x="0px" y="0px"
	 viewBox="195 220 417 295" enable-background="new 195 220 417 295" xml:space="preserve">
<g>
	<g>
		<defs>
			<rect id="SVGID_1_" y="221.8" width="612" height="348.4"/>
		</defs>
		<clipPath id="SVGID_2_">
			<use xlink:href="#SVGID_1_"  overflow="visible"/>
		</clipPath>
	</g>
	<g>
		<defs>
			<rect id="SVGID_3_" y="221.8" width="612" height="348.4"/>
		</defs>
		<clipPath id="SVGID_4_">
			<use xlink:href="#SVGID_3_"  overflow="visible"/>
		</clipPath>
	</g>
</g>
<polygon fill="#006BAB" points="437.6,461.6 380.7,461.6 342.8,461.6 342.8,442.7 323.8,442.7 323.8,464 323.8,464 323.8,471.1 
	323.8,480.5 380.7,480.5 437.6,480.5 456.5,471.1 "/>
<polygon fill="#006BAB" points="589.2,225.6 589.2,225.6 323.8,225.6 323.8,244.5 323.8,244.5 323.8,263.4 342.8,263.4 342.8,244.5 
	589.2,244.5 589.2,489.9 469.8,489.9 323.8,489.9 304.9,499.4 323.8,508.8 469.8,508.8 608.2,508.8 608.2,499.4 608.2,489.9 
	608.2,489.9 608.2,225.6 "/>
<polygon fill="#006BAB" points="225.4,272.8 281.8,272.8 256.5,433.4 200,433.4 "/>
<g>
	<g>
		<defs>
			<rect id="SVGID_5_" y="221.8" width="612" height="348.4"/>
		</defs>
		<clipPath id="SVGID_6_">
			<use xlink:href="#SVGID_5_"  overflow="visible"/>
		</clipPath>
		<path clip-path="url(#SVGID_6_)" fill="#006BAB" d="M331.4,387.2h5.3c20.1,0,37.5-9.4,41-31.7c3.8-24-8.7-34.3-31-34.3h-4.9
			L331.4,387.2z M293.1,272.8h59.1c54.2,0,91.2,23.7,82,82.4c-7.6,47.8-45.9,78.1-93.1,78.1h-73.4L293.1,272.8z"/>
	</g>
	<g>
		<defs>
			<rect id="SVGID_7_" y="221.8" width="612" height="348.4"/>
		</defs>
		<clipPath id="SVGID_8_">
			<use xlink:href="#SVGID_7_"  overflow="visible"/>
		</clipPath>
		<path clip-path="url(#SVGID_8_)" fill="#006BAB" d="M444.3,378.5l1.4,1.2c9.4,8.3,21.4,15.3,35.5,15.3c5.8,0,16.7-2.3,18-10.9
			c0.7-4.4-1.3-6.9-4.2-8.4c-1.4-0.7-2.9-1.1-4.4-1.5c-1.4-0.3-2.9-0.6-4.3-0.8l-11.6-2.2c-22.1-4.1-38.5-17.2-34.6-41.7
			c6-37.9,43.8-59.3,78.8-59.3c17.9,0,33.6,4.3,47.6,13.4l-21.2,39.3c-8.9-6.6-19.4-11.7-31.9-11.7c-5.2,0-14.2,1.9-15.5,9.8
			c-0.6,3.8,1.5,6.1,4.1,7.3c1.2,0.6,2.6,1,3.9,1.4c1.3,0.3,2.6,0.6,3.7,0.9l12.9,3c23.8,5.5,39,18.5,34.8,45.2
			c-6,38-43.6,57.1-78.5,57.1c-19.8,0-41.9-5.3-58.4-14.1L444.3,378.5z"/>
	</g>
</g>
</svg>
