<?xml version="1.0" encoding="UTF-8"?>
<svg width="335" height="70" xmlns="http://www.w3.org/2000/svg">
 <g>
  <title>Layer 1</title>
  <g>
   <polygon points="200.69700622558594,8 238.0659942626953,8 235.76100158691406,18.2239990234375 198.3939971923828,18.2239990234375 200.69700622558594,8 " stroke-miterlimit="2.6131" stroke-width="0.288" stroke="#009EE0" fill="#009EE0" clip-rule="evenodd" fill-rule="evenodd"/>
   <path d="m26.736008,8h65.951996c0,0 7.488007,0.287994 10.944016,5.832001c3.671997,5.903992 2.231995,10.29599 2.231995,10.29599l-3.959991,15.335999h-29.736008l4.391998,-17.567993c0,0 0.720001,-3.671997 -2.951996,-3.671997s-4.391998,3.671997 -4.391998,3.671997l-5.832001,24.192017c0,0 -1.440002,2.878998 2.160004,2.878998c3.671997,0 49.82399,0 49.82399,0s-3.959991,-2.878998 -2.447998,-10.943024l3.960007,-16.127991c0.64801,-3.671997 6.552002,-13.895996 21.167999,-13.895996h35.855988c13.175995,0.720001 13.175995,13.320007 13.175995,13.320007l-4.390991,18.143982h-36.576996c0,0 -1.29599,4.104004 0.720001,6.624023c2.951996,3.671997 7.343994,2.878998 7.343994,2.878998h36.576019l6.625,-26.279999h37.294983l-6.550995,26.279999h44.638992c0,0 3.098022,0.720978 4.393005,-3.02301c1.439026,-4.391998 -2.231995,-4.248016 -2.231995,-4.248016h-19.727005c-9.503998,0 -12.743988,-6.911987 -11.304993,-12.023987l1.800995,-7.776001c3.600006,-10.944 10.942978,-13.895996 20.520004,-13.895996h50.76001l-2.52002,10.223999h-30.744019c0,0 -2.880981,-0.720001 -4.319977,2.951996c-1.728973,4.248016 2.160004,4.391998 2.160004,4.391998h21.23999c5.111023,0 11.015991,5.112 9.504028,13.175995l-2.160034,8.783997c-1.438965,5.904022 -9.503967,11.736023 -18.289001,11.736023h-276.841003l2.231995,-10.296997c0,0 5.112,0 8.783997,0s3.672012,-2.878998 3.672012,-2.878998l5.831985,-23.400024c0,0 1.440002,-2.951996 -2.231995,-3.671997h-9.071991l2.520004,-11.015991l0,0zm129.312012,20.447998l1.656006,-6.552002c0,0 0.863983,-3.671997 -2.808014,-3.671997s-4.53598,3.671997 -4.53598,3.671997l-1.584015,6.552002h7.272003l0,0z" stroke-miterlimit="2.6131" stroke-width="0.288" stroke="#009EE0" fill="#009EE0" clip-rule="evenodd" fill-rule="evenodd"/>
  </g>
 </g>
</svg>