<?xml version="1.0" encoding="utf-8"?>
<!-- Generator: Adobe Illustrator 18.1.1, SVG Export Plug-In . SVG Version: 6.00 Build 0)  -->
<svg version="1.0" id="Layer_1" xmlns="http://www.w3.org/2000/svg" xmlns:xlink="http://www.w3.org/1999/xlink" x="0px" y="0px"
	 viewBox="0 321 612 150.1" enable-background="new 0 321 612 150.1" xml:space="preserve">
<g>
	<g>
		<g>
			<g>
				<g>
					<polygon fill="#FFFFFF" points="0,343.2 23.1,343.2 23.1,427.4 66.1,427.4 66.1,448.8 0,448.8 					"/>
					<g>
						<path fill="#FFFFFF" d="M76.2,377.1h22.2v71.7H76.2C76.2,448.8,76.2,377.1,76.2,377.1z M87.3,341.5c7.2,0,12.8,5.8,12.8,12.8
							c0,7.2-5.8,12.8-12.8,12.8c-7.2,0-12.8-5.8-12.8-12.8S80.3,341.5,87.3,341.5"/>
					</g>
					<polygon fill="#FFFFFF" points="191.5,343.2 213.7,343.2 213.7,406.3 239,377.1 266.3,377.1 237.1,410.5 265.7,448.8 
						237.6,448.8 214,413.5 213.7,413.5 213.7,448.8 191.5,448.8 					"/>
					<path fill="#FFFFFF" d="M110.9,377.1h21.4v9.7h0.3c3.1-5.6,10.3-11.7,21.1-11.7c22.5,0,26.7,14.7,26.7,34.2v39.5h-22.2v-34.7
						c0-8.3-0.3-18.9-11.7-18.9c-11.7,0-13.3,9.2-13.3,18.3v35.3h-22.2V377.1z"/>
					<path fill="#FFFFFF" d="M312.9,404.6c0.3-7.5-5.6-13.6-13.6-13.6c-9.7,0-15,6.7-15.8,13.6H312.9z M331.8,436.3
						c-7.2,9.2-18.9,14.2-30.3,14.2c-22.2,0-40-14.7-40-37.8s17.8-37.8,40-37.8c20.8,0,33.9,14.7,33.9,37.8v6.9h-51.7
						c1.7,8.3,8.1,13.9,16.7,13.9c7.2,0,12.2-3.6,15.8-8.9L331.8,436.3z"/>
					<path fill="#FFFFFF" d="M381.6,394.6c-11.1,0-17.8,7.5-17.8,18.3c0,10.8,6.7,18.3,17.8,18.3c11.1,0,17.8-7.5,17.8-18.3
						C399.4,401.8,392.7,394.6,381.6,394.6 M420,448.8h-20.6v-9.4h-0.3c-3.3,5.3-12,11.4-22.2,11.4c-21.4,0-35.6-15.3-35.6-37.2
						c0-20,12.5-38.4,32.8-38.4c9.2,0,17.8,2.5,22.8,9.4h0.3v-41.4h22.2v105.6H420z"/>
				</g>
				<path fill="#FFFFFF" d="M581.1,321H453.3c-6.1,0-11.1,4.7-11.1,10.8v128.4c0,6.1,5,10.8,11.1,10.8h127.8
					c6.1,0,11.1-4.7,11.1-10.8V331.8C592.3,325.7,587.3,321,581.1,321z M486.7,448.8h-22.2v-71.7h22.2V448.8z M475.5,367.4
					c-7.2,0-12.8-5.8-12.8-12.8c0-7.2,5.8-12.8,12.8-12.8c7.2,0,12.8,5.8,12.8,12.8C488.6,361.5,482.8,367.4,475.5,367.4z
					 M570,448.8h-22.2v-34.7c0-8.3-0.3-18.9-11.7-18.9c-11.7,0-13.3,9.2-13.3,18.3v35.3h-22.2v-71.7H522v9.7h0.3
					c3.1-5.6,10.3-11.7,21.1-11.7c22.5,0,26.7,14.7,26.7,34.2L570,448.8L570,448.8z"/>
			</g>
		</g>
	</g>
	<g>
		<polygon fill="#FFFFFF" points="597.5,442.1 599.5,442.1 599.5,448.8 600.9,448.8 600.9,442.1 602.8,442.1 602.8,441 597.5,441 		
			"/>
		<polygon fill="#FFFFFF" points="610.3,441 608.1,446.9 605.9,441 604.2,441 604.2,448.8 605.3,448.8 605.3,443 607.8,448.8 
			608.7,448.8 610.9,443 610.9,448.8 612,448.8 612,441 		"/>
	</g>
</g>
</svg>
