<?xml version="1.0" encoding="utf-8"?>
<!-- Generator: Adobe Illustrator 18.1.1, SVG Export Plug-In . SVG Version: 6.00 Build 0)  -->
<svg version="1.0" id="Layer_1" xmlns="http://www.w3.org/2000/svg" xmlns:xlink="http://www.w3.org/1999/xlink" x="0px" y="0px"
	 viewBox="0 0 136.6 111.1" enable-background="new 0 0 136.6 111.1" xml:space="preserve">
<path fill="#FFFFFF" d="M136.6,13.1c-5,2.2-10.5,3.8-16.1,4.4c5.8-3.5,10.2-9,12.4-15.5c-5.4,3.2-11.4,5.5-17.8,6.8
	C110,3.4,102.7,0,94.6,0c-15.5,0-28,12.5-28,28c0,2.2,0.2,4.4,0.8,6.4C44.1,33.3,23.4,22,9.6,5.1c-2.4,4.2-3.8,9-3.8,14.1
	c0,9.8,4.9,18.3,12.5,23.3c-4.6-0.1-8.9-1.4-12.7-3.5c0,0.1,0,0.2,0,0.4c0,13.6,9.6,24.9,22.5,27.5c-2.4,0.6-4.9,1-7.4,1
	c-1.8,0-3.6-0.2-5.3-0.5C19,78.5,29.3,86.6,41.6,86.9c-9.6,7.5-21.7,12-34.9,12c-2.2,0-4.5-0.2-6.7-0.4c12.4,8,27.2,12.6,43,12.6
	c51.6,0,79.8-42.8,79.8-79.8c0-1.2,0-2.4-0.1-3.6C128.1,23.6,132.8,18.7,136.6,13.1z"/>
</svg>
