<?xml version="1.0" encoding="UTF-8" standalone="no"?>
<!-- Created with Inkscape (http://www.inkscape.org/) -->
<svg xmlns:dc="http://purl.org/dc/elements/1.1/" xmlns:cc="http://web.resource.org/cc/" xmlns:rdf="http://www.w3.org/1999/02/22-rdf-syntax-ns#" xmlns:svg="http://www.w3.org/2000/svg" xmlns="http://www.w3.org/2000/svg" xmlns:sodipodi="http://sodipodi.sourceforge.net/DTD/sodipodi-0.dtd" xmlns:inkscape="http://www.inkscape.org/namespaces/inkscape" width="504.24811" height="124.22023" id="svg4871" sodipodi:version="0.32" inkscape:version="0.45" version="1.0" sodipodi:docbase="/home/rugby471/Desktop" sodipodi:docname="Nintendo.svg" inkscape:output_extension="org.inkscape.output.svg.inkscape" sodipodi:modified="true">
  <defs id="defs4873"/>
  <sodipodi:namedview id="base" pagecolor="#ffffff" bordercolor="#666666" borderopacity="1.0" gridtolerance="10000" guidetolerance="10" objecttolerance="10" inkscape:pageopacity="0.0" inkscape:pageshadow="2" inkscape:zoom="0.98994949" inkscape:cx="304.94423" inkscape:cy="110.42589" inkscape:document-units="px" inkscape:current-layer="layer1" inkscape:window-width="910" inkscape:window-height="622" inkscape:window-x="51" inkscape:window-y="28"/>
  <metadata id="metadata4876">
    <rdf:RDF>
      <cc:Work rdf:about="">
        <dc:format>image/svg+xml</dc:format>
        <dc:type rdf:resource="http://purl.org/dc/dcmitype/StillImage"/>
      </cc:Work>
    </rdf:RDF>
  </metadata>
  <g inkscape:label="Layer 1" inkscape:groupmode="layer" id="layer1" transform="translate(-399.305, -355.966)">
    <path style="fill: rgb(255, 255, 255); fill-opacity: 1; fill-rule: nonzero; stroke: none;" id="path2180" class="ps02" d="M 465.25171,480.18653 C 425.72716,480.17194 399.3045,452.15897 399.3045,418.19324 C 399.3045,384.21292 425.78552,355.87896 465.19335,355.9665 L 837.64917,355.9665 C 877.07159,355.87896 903.55261,384.21292 903.55261,418.19324 C 903.55261,452.15897 877.12995,480.17194 837.6054,480.18653 L 465.25171,480.18653 z M 465.38302,371.24233 L 465.38302,371.24233" sodipodi:nodetypes="csccscccc"/>
    <path style="fill: rgb(143, 143, 143); fill-opacity: 1; fill-rule: nonzero; stroke: none;" id="path3361" class="ps02" d="M 449.33391,388.73589 L 467.54235,388.73589 L 492.75402,429.51519 L 492.73943,388.73589 L 510.81655,388.73589 L 510.81655,447.21297 L 492.76861,447.21297 L 467.42562,406.43366 L 467.42562,447.21297 L 449.31932,447.21297 L 449.33391,388.73589"/>
    <path style="fill: rgb(143, 143, 143); fill-opacity: 1; fill-rule: nonzero; stroke: none;" id="path3363" class="ps02" d="M 609.10999,394.747 L 626.70564,394.747 L 626.70564,402.61106 L 636.21838,402.61106 L 636.21838,408.40333 L 626.70564,408.40333 L 626.72023,447.21297 L 609.0954,447.21297 L 609.10999,408.40333 L 599.55348,408.40333 L 599.55348,402.62565 L 609.12458,402.62565 L 609.10999,394.747"/>
    <path style="fill: rgb(143, 143, 143); fill-opacity: 1; fill-rule: nonzero; stroke: none;" id="path3365" class="ps02" d="M 520.88371,408.33038 L 538.46477,408.33038 L 538.46477,447.21297 L 520.88371,447.21297 L 520.88371,408.33038"/>
    <path style="fill: rgb(143, 143, 143); fill-opacity: 1; fill-rule: nonzero; stroke: none;" id="path3367" class="ps02" d="M 520.83994,388.7213 L 538.46477,388.7213 L 538.46477,400.67058 L 520.83994,400.67058 L 520.83994,388.7213 z "/>
    <path style="fill: rgb(143, 143, 143); fill-opacity: 1; fill-rule: nonzero; stroke: none;" id="path3369" class="ps02" d="M 836.1172,427.45798 C 836.1172,427.45798 836.10261,433.33779 836.10261,435.68679 C 836.10261,441.88758 832.4405,444.44085 828.90969,444.44085 C 825.39348,444.44085 821.71678,441.88758 821.71678,435.68679 C 821.71678,433.33779 821.71678,427.31208 821.71678,427.31208 C 821.71678,427.31208 821.73137,421.549 821.73137,419.19999 C 821.73137,413.02839 825.40807,410.48971 828.90969,410.48971 C 832.42591,410.48971 836.10261,413.02839 836.10261,419.19999 C 836.10261,421.549 836.10261,425.91143 836.1172,427.47257 L 836.1172,427.45798 z M 829.0556,405.67498 C 814.85944,405.67498 803.34786,415.45034 803.34786,427.50175 C 803.34786,439.56776 814.85944,449.34312 829.0556,449.34312 C 843.25175,449.34312 854.74874,439.56776 854.74874,427.50175 C 854.74874,415.45034 843.25175,405.67498 829.0556,405.67498"/>
    <path style="fill: rgb(143, 143, 143); fill-opacity: 1; fill-rule: nonzero; stroke: none;" id="path3371" class="ps02" d="M 780.26633,388.73589 L 797.62854,388.73589 L 797.62854,447.21297 L 780.23715,447.21297 C 780.23715,447.21297 780.22256,445.31625 780.22256,444.96609 C 773.49653,449.18263 765.90969,449.16804 759.98611,446.4251 C 758.41038,445.68101 747.96388,440.67661 747.96388,427.137 C 747.96388,416.88017 757.6517,405.66039 770.31589,406.78383 C 774.48866,407.14858 777.46504,408.66595 780.26633,410.25627 C 780.26633,401.25418 780.26633,388.73589 780.26633,388.73589 z M 780.39765,427.5747 C 780.39765,427.5747 780.39765,422.68702 780.39765,420.62982 C 780.39765,414.60411 776.23947,413.07216 773.51112,413.07216 C 770.70983,413.07216 766.61001,414.60411 766.61001,420.62982 C 766.61001,422.61407 766.6246,427.54552 766.6246,427.54552 C 766.6246,427.54552 766.61001,432.40402 766.61001,434.47582 C 766.61001,440.47234 770.70983,442.04807 773.49653,442.04807 C 776.23947,442.04807 780.39765,440.47234 780.39765,434.47582 C 780.39765,431.96632 780.39765,427.5747 780.39765,427.5747"/>
    <path style="fill: rgb(143, 143, 143); fill-opacity: 1; fill-rule: nonzero; stroke: none;" id="path3373" class="ps02" d="M 579.63801,406.5212 C 586.20355,406.34612 599.55348,410.6502 599.46594,426.04275 C 599.43676,428.78568 599.45135,447.19838 599.45135,447.19838 L 581.97242,447.19838 C 581.97242,447.19838 581.97242,424.10226 581.97242,421.66572 C 581.97242,418.28082 578.73342,414.50198 573.94787,414.50198 C 569.14773,414.50198 565.60234,418.28082 565.60234,421.66572 C 565.60234,423.3144 565.61693,447.19838 565.61693,447.19838 L 548.15259,447.19838 L 548.138,408.31579 L 565.61693,408.3012 C 565.61693,408.3012 565.58775,411.43807 565.61693,412.40101 C 568.97265,409.19119 573.83115,406.69629 579.63801,406.5212"/>
    <path style="fill: rgb(143, 143, 143); fill-opacity: 1; fill-rule: nonzero; stroke: none;" id="path3375" class="ps02" d="M 722.54794,406.5212 C 729.12807,406.34612 742.46341,410.6502 742.36128,426.04275 C 742.34669,428.78568 742.36128,447.19838 742.36128,447.19838 L 724.89694,447.19838 C 724.89694,447.19838 724.89694,424.10226 724.89694,421.66572 C 724.89694,418.28082 721.64335,414.50198 716.8578,414.50198 C 712.07225,414.50198 708.51227,418.28082 708.51227,421.66572 C 708.51227,423.3144 708.52686,447.19838 708.52686,447.19838 L 691.06252,447.19838 L 691.07711,408.31579 L 708.52686,408.3012 C 708.52686,408.3012 708.51227,411.43807 708.52686,412.40101 C 711.89717,409.19119 716.74108,406.69629 722.54794,406.5212"/>
    <path style="fill: rgb(143, 143, 143); fill-opacity: 1; fill-rule: nonzero; stroke: none;" id="path3377" class="ps02" d="M 652.60305,421.88457 C 652.57387,418.47049 652.64682,416.19443 653.77025,414.25395 C 655.14172,411.86118 657.66581,410.70856 659.95645,410.70856 L 659.94186,410.70856 C 662.2471,410.70856 664.77118,411.86118 666.14265,414.25395 C 667.2515,416.19443 667.30986,418.47049 667.28068,421.88457 L 652.60305,421.88457 z M 667.22232,433.615 C 667.22232,433.615 667.23691,433.77549 667.23691,435.96401 C 667.23691,443.08397 662.55349,444.6597 659.95645,444.6597 C 657.35942,444.6597 652.60305,443.08397 652.60305,435.96401 C 652.60305,433.83385 652.61764,427.93946 652.61764,427.93946 C 652.61764,427.93946 685.73714,427.95405 685.73714,427.93946 C 685.73714,415.87345 674.09425,405.87924 659.79596,405.87924 C 645.49767,405.87924 633.89855,415.6546 633.89855,427.72061 C 633.89855,439.77202 645.49767,449.54738 659.79596,449.54738 C 671.6577,449.54738 681.6811,442.77758 684.74502,433.60041 L 667.22232,433.615"/>
    <path style="fill: rgb(143, 143, 143); fill-opacity: 1; fill-rule: nonzero; stroke: none;" id="path3379" class="ps02" d="M 857.49168,393.08373 C 860.33675,393.08373 861.75199,394.04668 861.75199,395.95798 C 861.75199,397.27109 860.93494,398.26321 859.56347,398.59879 L 861.79576,403.06335 L 859.09659,403.06335 L 857.19988,398.97813 L 856.00349,398.97813 L 856.00349,403.06335 L 853.58154,403.06335 L 853.58154,393.08373 L 857.49168,393.08373 z M 857.27283,389.18818 C 852.29761,389.18818 848.27074,393.22963 848.27074,398.19026 C 848.27074,403.16548 852.29761,407.19235 857.27283,407.19235 C 862.24805,407.19235 866.27492,403.16548 866.27492,398.19026 C 866.27492,393.22963 862.24805,389.18818 857.27283,389.18818 z M 864.55328,398.19026 C 864.55328,402.21713 861.2851,405.47072 857.27283,405.47072 C 853.24596,405.47072 849.99237,402.21713 849.99237,398.19026 C 849.99237,394.17799 853.24596,390.90981 857.27283,390.90981 C 861.2851,390.90981 864.55328,394.17799 864.55328,398.19026 z M 856.00349,397.51912 L 857.19988,397.51912 C 858.58594,397.51912 859.24249,397.09601 859.24249,396.10388 C 859.24249,395.06798 858.52758,394.61569 857.06857,394.61569 L 856.00349,394.61569 L 856.00349,397.51912"/>
    <path style="fill: rgb(143, 143, 143); fill-opacity: 1; fill-rule: nonzero; stroke: none;" id="path3381" class="ps02" d="M 465.2517,480.18657 C 425.72715,480.17198 399.30449,452.15901 399.30449,418.19328 C 399.30449,384.21296 425.78551,355.879 465.19334,355.96654 L 837.64916,355.96654 C 877.07158,355.879 903.5526,384.21296 903.5526,418.19328 C 903.5526,452.15901 877.12994,480.17198 837.60539,480.18657 L 465.2517,480.18657 z M 465.38301,371.24237 C 434.07268,371.30073 414.86337,392.22292 414.86337,418.10574 C 414.86337,443.97397 433.95596,465.07124 465.38301,464.95452 L 837.47408,464.95452 C 868.90113,465.07124 887.98497,443.97397 887.98497,418.10574 C 887.98497,392.22292 868.78441,371.30073 837.47408,371.24237 L 465.38301,371.24237"/>
  </g>
</svg>